<?xml version="1.0" ?><svg viewBox="0 0 32 32" xmlns="http://www.w3.org/2000/svg"><defs><style>.cls-1{fill:#0593ff;}.cls-2{fill:#0e6ae0;}.cls-3{fill:#d8e1ef;}</style></defs><title/><g id="Detective"><path class="cls-1" d="M22.55,3.17a1,1,0,0,0-.94-.09l-6.53,2.8L10.51,3.14A1,1,0,0,0,9,4v9a1,1,0,0,0,1,1H22a1,1,0,0,0,1-1V4A1,1,0,0,0,22.55,3.17Z"/><path class="cls-2" d="M18,25a1,1,0,0,1-.89-.55c-.3-.6-.71-.95-1.11-.95s-.81.35-1.11.95a1,1,0,0,1-1.78-.9A3.29,3.29,0,0,1,16,21.5a3.29,3.29,0,0,1,2.89,2.05,1,1,0,0,1-.44,1.34A.93.93,0,0,1,18,25Z"/><circle class="cls-1" cx="10" cy="24" r="5"/><circle class="cls-1" cx="22" cy="24" r="5"/><path class="cls-3" d="M23,12H9a4,4,0,0,0-4,4v1a1,1,0,0,0,1,1H26a1,1,0,0,0,1-1V16A4,4,0,0,0,23,12Z"/></g></svg>